<svg width="30" height="30" xmlns="http://www.w3.org/2000/svg"><defs><linearGradient id="a" x1=".5" x2=".5" y1="0" y2="1"><stop stop-color="#7C3AED"/><stop offset=".46" stop-color="#685DFF"/><stop offset="1" stop-color="#3121FF"/></linearGradient></defs><path clip-rule="evenodd" d="M28 18c0 7.09-5.74 12.83-12.83 12.83S2.34 25.09 2.34 18 8.08 5.17 15.17 5.17 28 10.91 28 18zm2.17 0c0 8.28-6.72 15-15 15-8.28 0-15-6.72-15-15 0-8.28 6.72-15 15-15 8.28 0 15 6.72 15 15zm-6.72-6.72c0 .85-.7 1.55-1.56 1.55-.85 0-1.55-.7-1.55-1.55 0-.86.7-1.56 1.55-1.56.86 0 1.56.7 1.56 1.56zm-12.79 7.93a4.67 4.67 0 1 0 9.02-2.421 4.67 4.67 0 0 0-9.02 2.421zm-2.09.56c.97 3.65 4.72 5.81 8.37 4.83 3.65-.97 5.81-4.72 4.83-8.37-.97-3.65-4.72-5.81-8.37-4.83-3.65.97-5.81 4.72-4.83 8.37z" fill="url(#a)" fill-rule="evenodd" font-family="Times" transform="translate(-.17 -3)" class="layer"/></svg>