<svg xmlns="http://www.w3.org/2000/svg" viewBox="0 0 32 32" style="enable-background:new 0 0 32 32" xml:space="preserve"><path d="M23.14 16.75c1.57-1.02 2.76-2.6 3.22-4.51.16-.56.24-1.18.24-1.84 0-.25 0-.46-.03-.63a7.56 7.56 0 0 0-2.25-4.79A7.53 7.53 0 0 0 19 2.8c-1.76 0-3.43.61-4.78 1.71-.4-.06-.8-.11-1.22-.11-2 0-3.89.77-5.32 2.18-1.3 1.28-2.1 2.98-2.24 4.72-.04.24-.04.45-.04.7 0 .66.08 1.28.23 1.81a7.505 7.505 0 0 0 3.23 4.54C4.28 20.04 1 24.44 1 29.6c0 .55.45 1 1 1h22c.55 0 1-.45 1-1 0-.2-.01-.4-.02-.6H30c.55 0 1-.45 1-1 0-5.16-3.28-9.56-7.86-11.25zM19 4.8c1.48 0 2.87.57 3.92 1.6.96.94 1.55 2.19 1.66 3.6.02.14.02.26.02.39 0 .47-.06.92-.17 1.33a5.565 5.565 0 0 1-4.96 4.25c.01-.02.02-.05.04-.07.13-.21.23-.44.34-.66.05-.12.12-.23.17-.34.14-.35.26-.7.35-1.06.16-.56.24-1.18.24-1.84 0-.25 0-.46-.03-.63a7.608 7.608 0 0 0-2.25-4.8c-.25-.25-.52-.48-.8-.68-.04-.03-.09-.06-.14-.09-.24-.17-.49-.33-.74-.47.72-.35 1.52-.53 2.35-.53zM7.4 12c0-.14 0-.26.03-.47.1-1.33.69-2.58 1.65-3.53A5.563 5.563 0 0 1 13 6.4c.44 0 .87.05 1.29.16.97.22 1.88.72 2.63 1.45.96.94 1.55 2.19 1.66 3.6.02.13.02.26.02.39 0 .47-.06.92-.17 1.33a5.685 5.685 0 0 1-1.6 2.76 5.589 5.589 0 0 1-3.63 1.51h-.14c-2.58.05-4.88-1.73-5.5-4.3-.1-.38-.16-.83-.16-1.3zM3.05 28.6c.5-5.05 4.77-9 9.95-9h.25c.61.02 1.21.09 1.79.21 4.06.84 7.23 4.12 7.85 8.35l.06.45H3.05zM24.71 27c-.01-.03-.02-.05-.02-.08-.1-.45-.23-.88-.38-1.31-.03-.1-.07-.19-.11-.28-.13-.34-.27-.68-.43-1-.05-.1-.1-.21-.15-.31-.2-.39-.42-.77-.67-1.13-.04-.06-.09-.12-.14-.19-.21-.3-.43-.59-.67-.87-.09-.1-.17-.2-.26-.3-.26-.28-.52-.55-.81-.81-.05-.05-.1-.1-.16-.15-.3-.27-.62-.51-.95-.75-.12-.09-.25-.17-.38-.26-.26-.17-.53-.33-.8-.48-.12-.06-.23-.13-.35-.19-.36-.18-.74-.35-1.12-.5-.05-.02-.1-.05-.15-.07.11-.07.22-.15.33-.23.52-.05 1.01-.09 1.51-.09 5.18 0 9.45 3.95 9.95 9h-4.24z"/></svg>