<svg viewBox="0 0 22 20" fill="none" xmlns="http://www.w3.org/2000/svg"><path fill-rule="evenodd" clip-rule="evenodd" d="M17.806 1.765c-1.202.194-2.824.682-5.099 1.369L7.555 4.689c-1.83.553-3.155.953-4.091 1.315-.978.376-1.327.638-1.439.816a1.606 1.606 0 0 0 0 1.755c.112.177.461.439 1.439.816.936.361 2.261.763 4.091 1.314l.086.026c.499.151.888.268 1.223.47.321.195.598.447.813.739.225.302.353.654.519 1.108.01.025.02.051.028.077.612 1.657 1.054 2.858 1.452 3.706.416.886.706 1.202.901 1.303a2.094 2.094 0 0 0 1.938 0c.194-.101.485-.417.9-1.303.399-.848.841-2.049 1.451-3.706l1.717-4.668c.759-2.061 1.297-3.53 1.511-4.62.216-1.096.051-1.56-.257-1.839-.308-.279-.821-.427-2.03-.234l-.001.001ZM17.53.357C18.868.14 20.074.19 20.955.986c.878.796.933 1.89.695 3.102-.237 1.205-.815 2.773-1.546 4.759l-1.751 4.764c-.595 1.617-1.058 2.873-1.482 3.78-.412.876-.868 1.617-1.562 1.982a3.825 3.825 0 0 1-3.526 0c-.694-.365-1.15-1.107-1.56-1.982-.426-.907-.89-2.164-1.483-3.78l-.014-.034c-.207-.567-.27-.719-.36-.842-.1-.137-.23-.254-.381-.344-.135-.082-.304-.139-.93-.329l-.037-.01c-1.785-.538-3.171-.958-4.172-1.343-.966-.373-1.785-.786-2.188-1.415a2.923 2.923 0 0 1 0-3.194c.403-.628 1.222-1.042 2.188-1.413 1.001-.386 2.389-.805 4.172-1.343l5.257-1.588C14.468 1.093 16.2.569 17.53.355v.002Zm-.199 3.918a.667.667 0 0 1-.007 1.011L13.113 9.06c-.419.399-1.159.238-1.332-.29a.672.672 0 0 1 .221-.727l4.212-3.775a.848.848 0 0 1 1.117.007Z" fill="#7C3AED"/></svg>